<?xml version="1.0" encoding="utf-8"?>
<!-- Generator: Adobe Illustrator 21.1.0, SVG Export Plug-In . SVG Version: 6.00 Build 0)  -->
<svg version="1.1" id="Capa_1" xmlns="http://www.w3.org/2000/svg" xmlns:xlink="http://www.w3.org/1999/xlink" x="0px" y="0px"
	 viewBox="0 0 90 24" style="enable-background:new 0 0 90 24;" xml:space="preserve">
<style type="text/css">
	.st0{fill:#FF6815;}
</style>
<g>
	<g>
		<path class="st0" d="M14.6,7.9L17.3,1L10,0l0.8,1.5L3,6C1.6,6.8,1.2,8.5,2,9.9c0.2,0.3,0.4,0.5,0.6,0.7l0,0l0.1,0
			c0,0,0.1,0.1,0.1,0.1l2.9,2.2c-0.5-0.8-0.2-1.8,0.6-2.3l7.4-4.3L14.6,7.9z"/>
		<path class="st0" d="M14.8,13c-0.2-0.3-0.4-0.5-0.6-0.7l0,0l-0.1-0.1c0,0-0.1-0.1-0.1-0.1l-2.9-2.2c0.5,0.8,0.2,1.8-0.6,2.3
			l-0.4,0.2l0,0c-1.3,0.8-4.1,2.4-5.8,3.3c-2.2,1.2-2.8,2.2-2.8,5c0,2.8,0,3.3,0,3.3l12.1-7C15.1,16.2,15.6,14.4,14.8,13z"/>
	</g>
	<g>
		<path class="st0" d="M25.8,2.3c0.4,0,0.8,0.1,1.1,0.4c0.3,0.3,0.4,0.7,0.4,1.1v4.9c0.9-0.8,2.3-1.2,4.1-1.2c2,0,3.7,0.7,5.1,2.1
			c1.4,1.4,2.1,3.1,2.1,5.1c0,2-0.7,3.7-2.1,5.1c-1.4,1.4-3.1,2.1-5.1,2.1c-2,0-3.7-0.7-5.1-2.1c-1.4-1.4-2.1-3.1-2.1-5.1V3.8
			c0-0.4,0.1-0.8,0.4-1.1C25,2.4,25.3,2.3,25.8,2.3L25.8,2.3z M31.4,10.5c-1.1,0-2.1,0.4-2.9,1.2c-0.8,0.8-1.2,1.8-1.2,2.9
			c0,1.1,0.4,2.1,1.2,2.9c0.8,0.8,1.8,1.2,2.9,1.2c1.1,0,2.1-0.4,2.9-1.2c0.8-0.8,1.2-1.8,1.2-2.9c0-1.1-0.4-2.1-1.2-2.9
			C33.5,10.9,32.5,10.5,31.4,10.5z"/>
		<path class="st0" d="M44.6,10.4c-0.4,0-0.7,0.1-0.9,0.4c-0.2,0.3-0.4,0.6-0.4,0.9c0,0.5,0.2,0.9,0.7,1.1c0.2,0.1,0.9,0.3,2.1,0.6
			c1,0.3,1.7,0.7,2.2,1.1c0.7,0.7,1,1.6,1,2.8c0,1.2-0.4,2.2-1.3,3.1c-0.9,0.8-1.9,1.3-3.1,1.3h-3.3c-0.4,0-0.8-0.1-1.1-0.4
			c-0.3-0.3-0.4-0.6-0.4-1.1v0c0-0.4,0.1-0.8,0.4-1.1c0.3-0.3,0.7-0.4,1.1-0.4h3.4c0.4,0,0.7-0.1,0.9-0.4c0.2-0.2,0.4-0.6,0.4-0.9
			c0-0.5-0.2-0.8-0.7-1c-0.1-0.1-0.8-0.3-2.1-0.6c-1-0.3-1.7-0.7-2.2-1.1c-0.7-0.7-1-1.6-1-2.9c0-1.2,0.4-2.2,1.3-3.1
			c0.9-0.9,1.9-1.3,3.1-1.3H47c0.4,0,0.8,0.1,1.1,0.4s0.4,0.7,0.4,1.1v0c0,0.4-0.1,0.8-0.4,1.1c-0.3,0.3-0.7,0.4-1.1,0.4H44.6z"/>
		<path class="st0" d="M63.6,9.5c1.4,1.4,2.1,3.1,2.1,5.1v5.7c0,0.4-0.1,0.8-0.4,1.1c-0.3,0.3-0.7,0.4-1.1,0.4h0
			c-0.4,0-0.8-0.1-1.1-0.4c-0.3-0.3-0.4-0.6-0.4-1.1c-0.9,1-2.3,1.5-4.1,1.5c-2,0-3.7-0.7-5.1-2.1c-1.4-1.4-2.1-3.1-2.1-5.1
			c0-2,0.7-3.7,2.1-5.1c1.4-1.4,3.1-2.1,5.1-2.1C60.5,7.4,62.2,8.1,63.6,9.5z M55.6,11.6c-0.8,0.8-1.2,1.8-1.2,2.9
			c0,1.1,0.4,2.1,1.2,2.9c0.8,0.8,1.8,1.2,2.9,1.2c1.1,0,2.1-0.4,2.9-1.2c0.8-0.8,1.2-1.8,1.2-2.9c0-1.1-0.4-2.1-1.2-2.9
			c-0.8-0.8-1.8-1.2-2.9-1.2C57.4,10.4,56.4,10.8,55.6,11.6z"/>
		<path class="st0" d="M70.2,2.3c0.4,0,0.8,0.1,1.1,0.4c0.3,0.3,0.4,0.7,0.4,1.1v16.5c0,0.4-0.1,0.8-0.4,1.1
			c-0.3,0.3-0.7,0.4-1.1,0.4h0c-0.4,0-0.8-0.1-1.1-0.4c-0.3-0.3-0.4-0.6-0.4-1.1V3.8c0-0.4,0.1-0.8,0.4-1.1
			C69.4,2.4,69.8,2.3,70.2,2.3L70.2,2.3z"/>
		<path class="st0" d="M88.1,11.6c0.1,0.2,0.1,0.4,0.1,0.6c0,0.2,0,0.3-0.1,0.5c-0.1,0.4-0.4,0.7-0.8,0.8c-1.2,0.5-2.7,1.2-4.6,2.1
			c-2.4,1.1-3.7,1.7-4.1,1.9c0.6,0.8,1.6,1.2,3,1.2c0.9,0,1.7-0.3,2.4-0.8c0.7-0.5,1.2-1.2,1.5-2c0.2-0.7,0.7-1,1.4-1
			c0.5,0,0.9,0.2,1.2,0.6c0.2,0.3,0.3,0.5,0.3,0.8c0,0.2,0,0.4-0.1,0.5c-0.5,1.4-1.4,2.6-2.6,3.4c-1.2,0.9-2.6,1.4-4.2,1.4
			c-2,0-3.7-0.7-5.1-2.1c-1.4-1.4-2.1-3.1-2.1-5.1c0-2,0.7-3.7,2.1-5.1c1.4-1.4,3.1-2.1,5.1-2.1c1.4,0,2.7,0.4,3.9,1.2
			C86.6,9.3,87.5,10.3,88.1,11.6z M81.5,10.5c-1.1,0-2.1,0.4-2.9,1.2c-0.8,0.8-1.2,1.8-1.2,2.9v0.1l7-3.1
			C83.8,10.8,82.8,10.5,81.5,10.5z"/>
	</g>
</g>
</svg>
